<mxfile host="app.diagrams.net" modified="2021-11-22T07:45:10.608Z" agent="5.0 (X11; Linux x86_64) AppleWebKit/537.36 (KHTML, like Gecko) Chrome/94.0.4606.61 Safari/537.36 Edg/94.0.992.31" etag="WekBVNxNmzENCFy6R-3y" version="15.5.9" type="github">
  <diagram id="SI3XaiUDAbBVaC8Z4ORi" name="Page-1">
    <mxGraphModel dx="1350" dy="773" grid="1" gridSize="10" guides="1" tooltips="1" connect="1" arrows="1" fold="1" page="1" pageScale="1" pageWidth="827" pageHeight="1169" math="0" shadow="0">
      <root>
        <mxCell id="0" />
        <mxCell id="1" parent="0" />
        <mxCell id="dfrNIvbYqc1sZfVz5thz-23" value="0" style="text;html=1;align=center;verticalAlign=middle;resizable=0;points=[];autosize=1;strokeColor=none;fillColor=none;" vertex="1" parent="1">
          <mxGeometry x="690" y="330" width="20" height="20" as="geometry" />
        </mxCell>
        <mxCell id="dfrNIvbYqc1sZfVz5thz-24" value="63" style="text;html=1;align=center;verticalAlign=middle;resizable=0;points=[];autosize=1;strokeColor=none;fillColor=none;" vertex="1" parent="1">
          <mxGeometry x="85" y="330" width="30" height="20" as="geometry" />
        </mxCell>
        <mxCell id="dfrNIvbYqc1sZfVz5thz-25" value="31" style="text;html=1;align=center;verticalAlign=middle;resizable=0;points=[];autosize=1;strokeColor=none;fillColor=none;" vertex="1" parent="1">
          <mxGeometry x="405" y="330" width="30" height="20" as="geometry" />
        </mxCell>
        <mxCell id="dfrNIvbYqc1sZfVz5thz-26" value="" style="rounded=0;whiteSpace=wrap;html=1;fillColor=#ffe6cc;strokeColor=#d79b00;" vertex="1" parent="1">
          <mxGeometry x="80" y="360" width="320" height="40" as="geometry" />
        </mxCell>
        <mxCell id="dfrNIvbYqc1sZfVz5thz-27" value="" style="rounded=0;whiteSpace=wrap;html=1;fillColor=#f8cecc;strokeColor=#b85450;" vertex="1" parent="1">
          <mxGeometry x="400" y="360" width="320" height="40" as="geometry" />
        </mxCell>
        <mxCell id="dfrNIvbYqc1sZfVz5thz-28" value="32" style="text;html=1;align=center;verticalAlign=middle;resizable=0;points=[];autosize=1;strokeColor=none;fillColor=none;" vertex="1" parent="1">
          <mxGeometry x="365" y="330" width="30" height="20" as="geometry" />
        </mxCell>
        <mxCell id="dfrNIvbYqc1sZfVz5thz-29" value="" style="shape=curlyBracket;whiteSpace=wrap;html=1;rounded=1;flipH=1;rotation=90;fillColor=#f8cecc;strokeColor=#b85450;" vertex="1" parent="1">
          <mxGeometry x="550" y="270" width="20" height="320" as="geometry" />
        </mxCell>
        <mxCell id="dfrNIvbYqc1sZfVz5thz-30" value="&lt;font size=&quot;1&quot;&gt;&lt;b style=&quot;font-size: 16px&quot;&gt;clock&lt;/b&gt;&lt;/font&gt;" style="text;html=1;align=center;verticalAlign=middle;resizable=0;points=[];autosize=1;strokeColor=#b85450;fillColor=#f8cecc;" vertex="1" parent="1">
          <mxGeometry x="530" y="440" width="60" height="20" as="geometry" />
        </mxCell>
        <mxCell id="dfrNIvbYqc1sZfVz5thz-31" value="&lt;b&gt;&lt;font style=&quot;font-size: 16px&quot;&gt;clock_hi&lt;/font&gt;&lt;/b&gt;" style="text;html=1;align=center;verticalAlign=middle;resizable=0;points=[];autosize=1;strokeColor=#d79b00;fillColor=#ffe6cc;" vertex="1" parent="1">
          <mxGeometry x="200" y="440" width="80" height="20" as="geometry" />
        </mxCell>
        <mxCell id="dfrNIvbYqc1sZfVz5thz-32" value="" style="shape=curlyBracket;whiteSpace=wrap;html=1;rounded=1;flipH=1;rotation=90;fillColor=#ffe6cc;strokeColor=#d79b00;" vertex="1" parent="1">
          <mxGeometry x="230" y="270" width="20" height="320" as="geometry" />
        </mxCell>
        <mxCell id="dfrNIvbYqc1sZfVz5thz-33" value="" style="shape=curlyBracket;whiteSpace=wrap;html=1;rounded=1;flipH=1;rotation=90;fillColor=#e1d5e7;strokeColor=#9673a6;" vertex="1" parent="1">
          <mxGeometry x="390" y="160" width="20" height="640" as="geometry" />
        </mxCell>
        <mxCell id="dfrNIvbYqc1sZfVz5thz-34" value="&lt;b&gt;&lt;font style=&quot;font-size: 16px&quot;&gt;clock64&lt;/font&gt;&lt;/b&gt;" style="text;html=1;align=center;verticalAlign=middle;resizable=0;points=[];autosize=1;strokeColor=#9673a6;fillColor=#e1d5e7;" vertex="1" parent="1">
          <mxGeometry x="365" y="490" width="70" height="20" as="geometry" />
        </mxCell>
      </root>
    </mxGraphModel>
  </diagram>
</mxfile>
